<?xml version="1.0" encoding="UTF-8"?>
<svg version="1.1" xmlns="http://www.w3.org/2000/svg" width="116" height="116">
<path d="M0 0 C38.28 0 76.56 0 116 0 C116 38.28 116 76.56 116 116 C77.72 116 39.44 116 0 116 C0 77.72 0 39.44 0 0 Z " fill="#143A18" transform="translate(0,0)"/>
<path d="M0 0 C0.99 0 1.98 0 3 0 C3 0.99 3 1.98 3 3 C3.99 3 4.98 3 6 3 C6 2.01 6 1.02 6 0 C6.99 0 7.98 0 9 0 C9 2.97 9 5.94 9 9 C9.99 9 10.98 9 12 9 C12 10.98 12 12.96 12 15 C12.99 15 13.98 15 15 15 C15 17.97 15 20.94 15 24 C15.99 24 16.98 24 18 24 C18 23.01 18 22.02 18 21 C18.99 21 19.98 21 21 21 C21 22.98 21 24.96 21 27 C20.01 27 19.02 27 18 27 C18 27.99 18 28.98 18 30 C17.01 30 16.02 30 15 30 C15 30.99 15 31.98 15 33 C15.99 33 16.98 33 18 33 C18 33.99 18 34.98 18 36 C19.98 36 21.96 36 24 36 C24 34.02 24 32.04 24 30 C24.99 30 25.98 30 27 30 C27 30.99 27 31.98 27 33 C27.99 33 28.98 33 30 33 C30 32.01 30 31.02 30 30 C30.99 30 31.98 30 33 30 C33 32.97 33 35.94 33 39 C33.99 39 34.98 39 36 39 C36 39.99 36 40.98 36 42 C36.99 42 37.98 42 39 42 C39 41.01 39 40.02 39 39 C39.99 39 40.98 39 42 39 C42 42.96 42 46.92 42 51 C41.01 51 40.02 51 39 51 C39 51.99 39 52.98 39 54 C39.66 54 40.32 54 41 54 C41 54.99 41 55.98 41 57 C48.92 57 56.84 57 65 57 C65 56.01 65 55.02 65 54 C65.99 54 66.98 54 68 54 C68 48.06 68 42.12 68 36 C69.98 36 71.96 36 74 36 C74 36.99 74 37.98 74 39 C73.01 39 72.02 39 71 39 C71 42.96 71 46.92 71 51 C72.98 51 74.96 51 77 51 C77 48.03 77 45.06 77 42 C77.99 42 78.98 42 80 42 C80 46.29 80 50.58 80 55 C83.3 55.66 86.6 56.32 90 57 C90 57.66 90 58.32 90 59 C92.31 59 94.62 59 97 59 C97 59.66 97 60.32 97 61 C97.99 61 98.98 61 100 61 C100.66 61.99 101.32 62.98 102 64 C104.14653442 64.97249269 104.14653442 64.97249269 106.5625 65.625 C110.92255125 66.92255125 110.92255125 66.92255125 112 68 C112 72.95 112 77.9 112 83 C73.72 83 35.44 83 -4 83 C-4.020625 70.851875 -4.04125 58.70375 -4.0625 46.1875 C-4.071604 42.3514917 -4.08070801 38.5154834 -4.09008789 34.56323242 C-4.09460449 29.8795166 -4.09460449 29.8795166 -4.09544373 27.68696594 C-4.09697945 26.15542816 -4.10049678 24.62389158 -4.10557556 23.09236145 C-4.11288335 20.77273456 -4.11390638 18.45318158 -4.11352539 16.13354492 C-4.115746 14.82560471 -4.11796661 13.51766449 -4.12025452 12.17008972 C-4 9 -4 9 -3 6 C-2.01 6 -1.02 6 0 6 C0 4.02 0 2.04 0 0 Z " fill="#0D0D03" transform="translate(4,33)"/>
<path d="M0 0 C25.08 0 50.16 0 76 0 C76.185625 6.47625 76.37125 12.9525 76.5625 19.625 C76.68540405 22.67548584 76.68540405 22.67548584 76.81079102 25.78759766 C77.11453652 38.45812424 77.11453652 38.45812424 74.2355957 42.44091797 C71.8789337 44.02382994 69.65450561 45.0089637 67 46 C65.61896864 46.82246389 64.25429249 47.67321588 62.91015625 48.5546875 C61.62896783 49.3303818 60.34643136 50.1038543 59.0625 50.875 C58.40443359 51.2771875 57.74636719 51.679375 57.06835938 52.09375 C52.23943718 55 52.23943718 55 50 55 C50 55.66 50 56.32 50 57 C49.195625 57.2475 48.39125 57.495 47.5625 57.75 C44.828919 58.72238859 44.828919 58.72238859 44.1875 61.125 C44.0946875 62.053125 44.0946875 62.053125 44 63 C42.02 63 40.04 63 38 63 C38 62.01 38 61.02 38 60 C38.99 60 39.98 60 41 60 C41 58.02 41 56.04 41 54 C41.99 54 42.98 54 44 54 C44 49.05 44 44.1 44 39 C43.01 39 42.02 39 41 39 C41 35.04 41 31.08 41 27 C40.01 27 39.02 27 38 27 C38 25.02 38 23.04 38 21 C37.01 21 36.02 21 35 21 C35 20.01 35 19.02 35 18 C32.03 18 29.06 18 26 18 C26 18.99 26 19.98 26 21 C25.01 21 24.02 21 23 21 C23 21.99 23 22.98 23 24 C21.35 24 19.7 24 18 24 C18 24.99 18 25.98 18 27 C17.01 27 16.02 27 15 27 C15 24.03 15 21.06 15 18 C14.01 18 13.02 18 12 18 C12 18.99 12 19.98 12 21 C11.01 21 10.02 21 9 21 C9 20.01 9 19.02 9 18 C8.01 18 7.02 18 6 18 C6 15.03 6 12.06 6 9 C5.01 9 4.02 9 3 9 C3 9.99 3 10.98 3 12 C2.01 12 1.02 12 0 12 C0 8.04 0 4.08 0 0 Z " fill="#111104" transform="translate(40,0)"/>
<path d="M0 0 C0.99 0 1.98 0 3 0 C3 0.99 3 1.98 3 3 C3.99 3 4.98 3 6 3 C6 2.01 6 1.02 6 0 C6.99 0 7.98 0 9 0 C9 2.97 9 5.94 9 9 C9.99 9 10.98 9 12 9 C12 10.98 12 12.96 12 15 C12.99 15 13.98 15 15 15 C15 17.97 15 20.94 15 24 C15.99 24 16.98 24 18 24 C18 23.01 18 22.02 18 21 C18.99 21 19.98 21 21 21 C21 22.98 21 24.96 21 27 C20.01 27 19.02 27 18 27 C18 27.99 18 28.98 18 30 C17.01 30 16.02 30 15 30 C15 30.99 15 31.98 15 33 C15.99 33 16.98 33 18 33 C18 33.99 18 34.98 18 36 C19.98 36 21.96 36 24 36 C24 34.02 24 32.04 24 30 C24.99 30 25.98 30 27 30 C27 30.99 27 31.98 27 33 C27.99 33 28.98 33 30 33 C30 32.01 30 31.02 30 30 C30.99 30 31.98 30 33 30 C33 32.97 33 35.94 33 39 C33.99 39 34.98 39 36 39 C36 39.99 36 40.98 36 42 C36.99 42 37.98 42 39 42 C39 41.01 39 40.02 39 39 C39.99 39 40.98 39 42 39 C42 42.96 42 46.92 42 51 C40.02 51 38.04 51 36 51 C36 51.99 36 52.98 36 54 C36.66 54 37.32 54 38 54 C38 55.98 38 57.96 38 60 C36.35 60 34.7 60 33 60 C33 59.01 33 58.02 33 57 C32.01 57 31.02 57 30 57 C30 57.99 30 58.98 30 60 C29.01 60 28.02 60 27 60 C27 60.99 27 61.98 27 63 C25.02 63 23.04 63 21 63 C21 63.99 21 64.98 21 66 C20.01 66 19.02 66 18 66 C18 66.99 18 67.98 18 69 C16.02 69 14.04 69 12 69 C12 69.99 12 70.98 12 72 C10.02 72 8.04 72 6 72 C6 72.99 6 73.98 6 75 C5.01 75 4.02 75 3 75 C3 75.99 3 76.98 3 78 C2.01 78 1.02 78 0 78 C0 78.99 0 79.98 0 81 C-0.99 81 -1.98 81 -3 81 C-3.495 81.99 -3.495 81.99 -4 83 C-4.02315289 73.40341435 -4.04093016 63.80683829 -4.05181217 54.21023083 C-4.05703453 49.75432029 -4.06412049 45.29842885 -4.07543945 40.8425293 C-4.08629125 36.5437177 -4.09228172 32.24492447 -4.09487724 27.94610023 C-4.09672734 26.3046267 -4.10034004 24.66315419 -4.10573006 23.02168846 C-4.11297088 20.72561836 -4.11398965 18.42962457 -4.11352539 16.13354492 C-4.115746 14.82560471 -4.11796661 13.51766449 -4.12025452 12.17008972 C-4 9 -4 9 -3 6 C-2.01 6 -1.02 6 0 6 C0 4.02 0 2.04 0 0 Z " fill="#1C5320" transform="translate(4,33)"/>
<path d="M0 0 C0 17.82 0 35.64 0 54 C-3.3 53.01 -6.6 52.02 -10 51 C-10.66 49.68 -11.32 48.36 -12 47 C-12.99 47 -13.98 47 -15 47 C-15 46.34 -15 45.68 -15 45 C-17.31 45 -19.62 45 -22 45 C-22 44.34 -22 43.68 -22 43 C-23.27875 42.855625 -24.5575 42.71125 -25.875 42.5625 C-28.25692894 42.29357254 -29.84452691 42.07773654 -32 41 C-32 36.71 -32 32.42 -32 28 C-32.99 28 -33.98 28 -35 28 C-35 30.97 -35 33.94 -35 37 C-36.98 37 -38.96 37 -41 37 C-41 33.04 -41 29.08 -41 25 C-40.01 25 -39.02 25 -38 25 C-38 24.01 -38 23.02 -38 22 C-39.98 22 -41.96 22 -44 22 C-44 21.01 -44 20.02 -44 19 C-42.06325815 18.80482446 -40.12555991 18.61912127 -38.1875 18.4375 C-36.56908203 18.28087891 -36.56908203 18.28087891 -34.91796875 18.12109375 C-32 18 -32 18 -29 19 C-29 17.68 -29 16.36 -29 15 C-28.01 15 -27.02 15 -26 15 C-26 14.34 -26 13.68 -26 13 C-25.34 13 -24.68 13 -24 13 C-24 12.34 -24 11.68 -24 11 C-22.35 10.67 -20.7 10.34 -19 10 C-19 9.34 -19 8.68 -19 8 C-18.04287109 7.83564453 -18.04287109 7.83564453 -17.06640625 7.66796875 C-16.24011719 7.50941406 -15.41382812 7.35085937 -14.5625 7.1875 C-13.32693359 6.96126953 -13.32693359 6.96126953 -12.06640625 6.73046875 C-11.38449219 6.48941406 -10.70257813 6.24835937 -10 6 C-9.67 5.01 -9.34 4.02 -9 3 C-2.88888889 0 -2.88888889 0 0 0 Z " fill="#A6D22A" transform="translate(116,47)"/>
<path d="M0 0 C2.97 0 5.94 0 9 0 C9 0.99 9 1.98 9 3 C9.99 3 10.98 3 12 3 C12 4.98 12 6.96 12 9 C12.99 9 13.98 9 15 9 C15 12.96 15 16.92 15 21 C15.99 21 16.98 21 18 21 C18 25.95 18 30.9 18 36 C17.01 36 16.02 36 15 36 C15 37.98 15 39.96 15 42 C14.01 42 13.02 42 12 42 C12 42.99 12 43.98 12 45 C-0.54 45 -13.08 45 -26 45 C-26 43.02 -26 41.04 -26 39 C-25.01 39 -24.02 39 -23 39 C-23 38.01 -23 37.02 -23 36 C-21.35 36 -19.7 36 -18 36 C-18 35.01 -18 34.02 -18 33 C-17.01 33 -16.02 33 -15 33 C-14.67 29.04 -14.34 25.08 -14 21 C-13.01 21 -12.02 21 -11 21 C-11 17.04 -11 13.08 -11 9 C-10.01 9 -9.02 9 -8 9 C-8 8.01 -8 7.02 -8 6 C-6.35 6 -4.7 6 -3 6 C-3 5.01 -3 4.02 -3 3 C-2.01 3 -1.02 3 0 3 C0 2.01 0 1.02 0 0 Z " fill="#CE814B" transform="translate(66,18)"/>
<path d="M0 0 C0 2.31 0 4.62 0 7 C-0.61488281 7.25394531 -1.22976562 7.50789063 -1.86328125 7.76953125 C-2.67152344 8.11371094 -3.47976562 8.45789062 -4.3125 8.8125 C-5.51326172 9.31716797 -5.51326172 9.31716797 -6.73828125 9.83203125 C-9.03351258 10.86773709 -9.03351258 10.86773709 -10.5625 12.59375 C-12.93497369 14.91464818 -15.8141856 14.69945147 -19 15 C-19 15.66 -19 16.32 -19 17 C-20.65 17.33 -22.3 17.66 -24 18 C-24 18.66 -24 19.32 -24 20 C-24.66 20 -25.32 20 -26 20 C-26 20.66 -26 21.32 -26 22 C-26.99 22 -27.98 22 -29 22 C-29 23.32 -29 24.64 -29 26 C-33.95 26 -38.9 26 -44 26 C-44 32.93 -44 39.86 -44 47 C-44.99 47 -45.98 47 -47 47 C-47 47.99 -47 48.98 -47 50 C-54.92 50 -62.84 50 -71 50 C-71 49.01 -71 48.02 -71 47 C-71.66 47 -72.32 47 -73 47 C-73 46.01 -73 45.02 -73 44 C-72.01 44 -71.02 44 -70 44 C-70 40.04 -70 36.08 -70 32 C-70.99 32 -71.98 32 -73 32 C-73 32.99 -73 33.98 -73 35 C-73.99 35 -74.98 35 -76 35 C-76 34.01 -76 33.02 -76 32 C-76.99 32 -77.98 32 -79 32 C-79 29.03 -79 26.06 -79 23 C-79.99 23 -80.98 23 -82 23 C-82 23.99 -82 24.98 -82 26 C-82.99 26 -83.98 26 -85 26 C-85 25.01 -85 24.02 -85 23 C-85.99 23 -86.98 23 -88 23 C-88 22.01 -88 21.02 -88 20 C-85.03 20 -82.06 20 -79 20 C-79 19.01 -79 18.02 -79 17 C-78.01 17 -77.02 17 -76 17 C-76 18.98 -76 20.96 -76 23 C-61.48 23 -46.96 23 -32 23 C-31.67 21.35 -31.34 19.7 -31 18 C-29.35 17.67 -27.7 17.34 -26 17 C-26 16.34 -26 15.68 -26 15 C-23.72094727 13.39599609 -23.72094727 13.39599609 -20.56640625 11.5234375 C-19.44298828 10.853125 -18.31957031 10.1828125 -17.16210938 9.4921875 C-16.57196045 9.14510742 -15.98181152 8.79802734 -15.3737793 8.44042969 C-13.56955168 7.37914794 -11.77162774 6.30780973 -9.97460938 5.234375 C-1.15802214 0 -1.15802214 0 0 0 Z " fill="#140604" transform="translate(116,40)"/>
<path d="M0 0 C13.2 0 26.4 0 40 0 C40 2.97 40 5.94 40 9 C39.01 9 38.02 9 37 9 C37 9.99 37 10.98 37 12 C36.01 12 35.02 12 34 12 C34 14.97 34 17.94 34 21 C33.01 21 32.02 21 31 21 C31 19.02 31 17.04 31 15 C30.01 15 29.02 15 28 15 C28 15.99 28 16.98 28 18 C27.01 18 26.02 18 25 18 C25 17.01 25 16.02 25 15 C24.01 15 23.02 15 22 15 C22 18.96 22 22.92 22 27 C21.01 27 20.02 27 19 27 C19 27.99 19 28.98 19 30 C18.01 30 17.02 30 16 30 C16 29.01 16 28.02 16 27 C15.01 27 14.02 27 13 27 C13 28.98 13 30.96 13 33 C12.01 33 11.02 33 10 33 C10 33.99 10 34.98 10 36 C9.01 36 8.02 36 7 36 C7 35.01 7 34.02 7 33 C6.01 33 5.02 33 4 33 C4 34.98 4 36.96 4 39 C3.01 39 2.02 39 1 39 C0.67 39.99 0.34 40.98 0 42 C0 28.14 0 14.28 0 0 Z " fill="#31180B" transform="translate(0,0)"/>
<path d="M0 0 C0.99 0 1.98 0 3 0 C3 0.99 3 1.98 3 3 C3.99 3 4.98 3 6 3 C6 2.01 6 1.02 6 0 C6.99 0 7.98 0 9 0 C9 2.97 9 5.94 9 9 C9.99 9 10.98 9 12 9 C12 9.99 12 10.98 12 12 C12.99 12 13.98 12 15 12 C15 11.01 15 10.02 15 9 C15.99 9 16.98 9 18 9 C18 12.96 18 16.92 18 21 C16.02 21 14.04 21 12 21 C12 21.99 12 22.98 12 24 C12.66 24 13.32 24 14 24 C14 25.98 14 27.96 14 30 C12.35 30 10.7 30 9 30 C9 29.01 9 28.02 9 27 C6.03 27 3.06 27 0 27 C0 26.01 0 25.02 0 24 C-0.99 24 -1.98 24 -3 24 C-3 24.99 -3 25.98 -3 27 C-5.97 27 -8.94 27 -12 27 C-12 26.01 -12 25.02 -12 24 C-12.99 24 -13.98 24 -15 24 C-15 21.03 -15 18.06 -15 15 C-14.01 15 -13.02 15 -12 15 C-12 13.02 -12 11.04 -12 9 C-11.01 9 -10.02 9 -9 9 C-9 7.02 -9 5.04 -9 3 C-8.01 3 -7.02 3 -6 3 C-6 3.99 -6 4.98 -6 6 C-4.02 6 -2.04 6 0 6 C0 4.02 0 2.04 0 0 Z " fill="#1E5822" transform="translate(28,63)"/>
<path d="M0 0 C0.99 0 1.98 0 3 0 C3 0.99 3 1.98 3 3 C3.99 3 4.98 3 6 3 C6 2.01 6 1.02 6 0 C6.99 0 7.98 0 9 0 C9 2.97 9 5.94 9 9 C9.99 9 10.98 9 12 9 C12 9.99 12 10.98 12 12 C12.99 12 13.98 12 15 12 C15 11.01 15 10.02 15 9 C15.99 9 16.98 9 18 9 C18 11.97 18 14.94 18 18 C17.01 18 16.02 18 15 18 C15 18.99 15 19.98 15 21 C14.01 21 13.02 21 12 21 C12 21.99 12 22.98 12 24 C5.07 24 -1.86 24 -9 24 C-9 23.01 -9 22.02 -9 21 C-9.99 21 -10.98 21 -12 21 C-12 20.01 -12 19.02 -12 18 C-12.99 18 -13.98 18 -15 18 C-15 14.04 -15 10.08 -15 6 C-14.01 6 -13.02 6 -12 6 C-12 6.99 -12 7.98 -12 9 C-11.01 9 -10.02 9 -9 9 C-9 8.01 -9 7.02 -9 6 C-8.01 6 -7.02 6 -6 6 C-6 7.98 -6 9.96 -6 12 C-5.01 12 -4.02 12 -3 12 C-3 9.03 -3 6.06 -3 3 C-2.01 3 -1.02 3 0 3 C0 2.01 0 1.02 0 0 Z " fill="#17421C" transform="translate(37,9)"/>
<path d="M0 0 C3.96 0 7.92 0 12 0 C12 4.29 12 8.58 12 13 C11.01 13 10.02 13 9 13 C9 14.98 9 16.96 9 19 C8.01 19 7.02 19 6 19 C6 19.99 6 20.98 6 22 C-6.54 22 -19.08 22 -32 22 C-32 20.02 -32 18.04 -32 16 C-31.01 16 -30.02 16 -29 16 C-29 15.01 -29 14.02 -29 13 C-27.35 13 -25.7 13 -24 13 C-24 12.01 -24 11.02 -24 10 C-18.06 10 -12.12 10 -6 10 C-6 10.99 -6 11.98 -6 13 C-5.01 13 -4.02 13 -3 13 C-3 11.02 -3 9.04 -3 7 C-2.01 7 -1.02 7 0 7 C0 8.98 0 10.96 0 13 C0.99 13 1.98 13 3 13 C3 11.02 3 9.04 3 7 C3.99 7 4.98 7 6 7 C6 7.99 6 8.98 6 10 C6.99 10 7.98 10 9 10 C9 8.02 9 6.04 9 4 C8.01 4 7.02 4 6 4 C6 3.01 6 2.02 6 1 C4.02 1 2.04 1 0 1 C0 0.67 0 0.34 0 0 Z " fill="#FFED84" transform="translate(72,41)"/>
<path d="M0 0 C1.98 0 3.96 0 6 0 C6 5.94 6 11.88 6 18 C5.01 18 4.02 18 3 18 C3 18.99 3 19.98 3 21 C-4.92 21 -12.84 21 -21 21 C-21 20.01 -21 19.02 -21 18 C-21.66 18 -22.32 18 -23 18 C-23 17.01 -23 16.02 -23 15 C-22.01 15 -21.02 15 -20 15 C-20 14.01 -20 13.02 -20 12 C-19.01 12 -18.02 12 -17 12 C-17 9.03 -17 6.06 -17 3 C-11.39 3 -5.78 3 0 3 C0 2.01 0 1.02 0 0 Z " fill="#E33529" transform="translate(66,69)"/>
<path d="M0 0 C0.99 0 1.98 0 3 0 C3 4.95 3 9.9 3 15 C2.01 15 1.02 15 0 15 C0 15.99 0 16.98 0 18 C-0.99 18 -1.98 18 -3 18 C-3 19.98 -3 21.96 -3 24 C-6.96 24 -10.92 24 -15 24 C-15 24.66 -15 25.32 -15 26 C-20.94 26 -26.88 26 -33 26 C-33 25.34 -33 24.68 -33 24 C-32.01 24 -31.02 24 -30 24 C-30 23.01 -30 22.02 -30 21 C-29.01 21 -28.02 21 -27 21 C-27 20.01 -27 19.02 -27 18 C-26.01 18 -25.02 18 -24 18 C-24 17.01 -24 16.02 -24 15 C-22.02 15 -20.04 15 -18 15 C-18 14.01 -18 13.02 -18 12 C-16.02 12 -14.04 12 -12 12 C-12 11.01 -12 10.02 -12 9 C-11.01 9 -10.02 9 -9 9 C-9 8.01 -9 7.02 -9 6 C-7.02 6 -5.04 6 -3 6 C-3 5.01 -3 4.02 -3 3 C-2.01 3 -1.02 3 0 3 C0 2.01 0 1.02 0 0 Z " fill="#0F2A12" transform="translate(34,90)"/>
<path d="M0 0 C7.92 0 15.84 0 24 0 C24 2.97 24 5.94 24 9 C23.01 9 22.02 9 21 9 C21 9.99 21 10.98 21 12 C20.01 12 19.02 12 18 12 C18 14.97 18 17.94 18 21 C17.01 21 16.02 21 15 21 C15 19.02 15 17.04 15 15 C14.01 15 13.02 15 12 15 C12 15.99 12 16.98 12 18 C11.01 18 10.02 18 9 18 C9 17.01 9 16.02 9 15 C7.02 15 5.04 15 3 15 C3 14.01 3 13.02 3 12 C2.01 12 1.02 12 0 12 C0 8.04 0 4.08 0 0 Z " fill="#122F16" transform="translate(16,0)"/>
<path d="M0 0 C2.97 0 5.94 0 9 0 C9 0.99 9 1.98 9 3 C9.99 3 10.98 3 12 3 C12 4.98 12 6.96 12 9 C12.99 9 13.98 9 15 9 C15 11.31 15 13.62 15 16 C6.42 16 -2.16 16 -11 16 C-11 13.69 -11 11.38 -11 9 C-10.01 9 -9.02 9 -8 9 C-8 8.01 -8 7.02 -8 6 C-6.35 6 -4.7 6 -3 6 C-3 5.01 -3 4.02 -3 3 C-2.01 3 -1.02 3 0 3 C0 2.01 0 1.02 0 0 Z " fill="#C37A48" transform="translate(66,18)"/>
<path d="M0 0 C3.3 0 6.6 0 10 0 C10 2.97 10 5.94 10 9 C9.01 9 8.02 9 7 9 C7 9.99 7 10.98 7 12 C7.99 12 8.98 12 10 12 C10 15.96 10 19.92 10 24 C9.01 24 8.02 24 7 24 C7 24.99 7 25.98 7 27 C4.69 27 2.38 27 0 27 C0 18.09 0 9.18 0 0 Z " fill="#153B1A" transform="translate(0,0)"/>
<path d="M0 0 C0.99 0 1.98 0 3 0 C3 1.98 3 3.96 3 6 C3.99 6 4.98 6 6 6 C6 6.99 6 7.98 6 9 C8.97 9 11.94 9 15 9 C15 8.01 15 7.02 15 6 C15.99 6 16.98 6 18 6 C18 6.99 18 7.98 18 9 C19.98 9 21.96 9 24 9 C24 9.99 24 10.98 24 12 C23.01 12 22.02 12 21 12 C21 12.99 21 13.98 21 15 C19.02 15 17.04 15 15 15 C15 15.99 15 16.98 15 18 C12.03 18 9.06 18 6 18 C6 17.01 6 16.02 6 15 C5.01 15 4.02 15 3 15 C3 14.01 3 13.02 3 12 C2.01 12 1.02 12 0 12 C0 8.04 0 4.08 0 0 Z " fill="#1C4C1D" transform="translate(10,81)"/>
<path d="M0 0 C1.98 0 3.96 0 6 0 C6 3.96 6 7.92 6 12 C5.01 12 4.02 12 3 12 C3 11.01 3 10.02 3 9 C2.01 9 1.02 9 0 9 C0 9.99 0 10.98 0 12 C-1.98 12 -3.96 12 -6 12 C-6 11.01 -6 10.02 -6 9 C-7.98 9 -9.96 9 -12 9 C-12 9.99 -12 10.98 -12 12 C-13.65 12 -15.3 12 -17 12 C-17 9.03 -17 6.06 -17 3 C-11.39 3 -5.78 3 0 3 C0 2.01 0 1.02 0 0 Z " fill="#FB4631" transform="translate(66,69)"/>
<path d="M0 0 C0 2.31 0 4.62 0 7 C-0.61488281 7.25394531 -1.22976562 7.50789063 -1.86328125 7.76953125 C-2.67152344 8.11371094 -3.47976562 8.45789062 -4.3125 8.8125 C-5.51326172 9.31716797 -5.51326172 9.31716797 -6.73828125 9.83203125 C-9.03351258 10.86773709 -9.03351258 10.86773709 -10.5625 12.59375 C-12.93497369 14.91464818 -15.8141856 14.69945147 -19 15 C-19 15.66 -19 16.32 -19 17 C-20.65 17.33 -22.3 17.66 -24 18 C-24 18.66 -24 19.32 -24 20 C-24.66 20 -25.32 20 -26 20 C-26 20.66 -26 21.32 -26 22 C-26.99 22 -27.98 22 -29 22 C-29 23.32 -29 24.64 -29 26 C-31.97 26 -34.94 26 -38 26 C-38 25.01 -38 24.02 -38 23 C-36.02 23 -34.04 23 -32 23 C-31.67 21.35 -31.34 19.7 -31 18 C-29.35 17.67 -27.7 17.34 -26 17 C-26 16.34 -26 15.68 -26 15 C-23.72094727 13.39599609 -23.72094727 13.39599609 -20.56640625 11.5234375 C-19.44298828 10.853125 -18.31957031 10.1828125 -17.16210938 9.4921875 C-16.57196045 9.14510742 -15.98181152 8.79802734 -15.3737793 8.44042969 C-13.56955168 7.37914794 -11.77162774 6.30780973 -9.97460938 5.234375 C-1.15802214 0 -1.15802214 0 0 0 Z " fill="#38430F" transform="translate(116,40)"/>
<path d="M0 0 C4.95 0 9.9 0 15 0 C15 1.98 15 3.96 15 6 C14.01 6 13.02 6 12 6 C12 6.99 12 7.98 12 9 C11.01 9 10.02 9 9 9 C9 10.98 9 12.96 9 15 C7.02 15 5.04 15 3 15 C3 14.01 3 13.02 3 12 C2.01 12 1.02 12 0 12 C0 8.04 0 4.08 0 0 Z " fill="#0D2312" transform="translate(16,0)"/>
<path d="M0 0 C3.96 0 7.92 0 12 0 C12 4.29 12 8.58 12 13 C11.01 13 10.02 13 9 13 C9 14.98 9 16.96 9 19 C8.01 19 7.02 19 6 19 C6 19.99 6 20.98 6 22 C3.03 22 0.06 22 -3 22 C-3 21.01 -3 20.02 -3 19 C-2.01 19 -1.02 19 0 19 C0 17.02 0 15.04 0 13 C0.99 13 1.98 13 3 13 C3 11.02 3 9.04 3 7 C3.99 7 4.98 7 6 7 C6 7.99 6 8.98 6 10 C6.99 10 7.98 10 9 10 C9 8.02 9 6.04 9 4 C8.01 4 7.02 4 6 4 C6 3.01 6 2.02 6 1 C4.02 1 2.04 1 0 1 C0 0.67 0 0.34 0 0 Z " fill="#D1824B" transform="translate(72,41)"/>
<path d="M0 0 C7.92 0 15.84 0 24 0 C24 2.97 24 5.94 24 9 C21.03 9 18.06 9 15 9 C15 8.01 15 7.02 15 6 C15.99 6 16.98 6 18 6 C18 5.01 18 4.02 18 3 C14.04 3 10.08 3 6 3 C6 3.99 6 4.98 6 6 C6.99 6 7.98 6 9 6 C9 6.99 9 7.98 9 9 C6.03 9 3.06 9 0 9 C0 6.03 0 3.06 0 0 Z " fill="#523D20" transform="translate(45,93)"/>
<path d="M0 0 C0.99 0 1.98 0 3 0 C3 1.98 3 3.96 3 6 C2.01 6 1.02 6 0 6 C0 7.98 0 9.96 0 12 C-0.99 12 -1.98 12 -3 12 C-3 12.99 -3 13.98 -3 15 C-3.99 15 -4.98 15 -6 15 C-6 16.98 -6 18.96 -6 21 C-6.99 21 -7.98 21 -9 21 C-9 20.01 -9 19.02 -9 18 C-9.99 18 -10.98 18 -12 18 C-12 15.03 -12 12.06 -12 9 C-11.01 9 -10.02 9 -9 9 C-9 8.01 -9 7.02 -9 6 C-8.01 6 -7.02 6 -6 6 C-6 5.01 -6 4.02 -6 3 C-4.02 3 -2.04 3 0 3 C0 2.01 0 1.02 0 0 Z " fill="#122D14" transform="translate(16,66)"/>
<path d="M0 0 C3.96 0 7.92 0 12 0 C12 0.99 12 1.98 12 3 C12.99 3 13.98 3 15 3 C15 4.98 15 6.96 15 9 C14.01 9 13.02 9 12 9 C12 8.01 12 7.02 12 6 C11.01 6 10.02 6 9 6 C9 7.98 9 9.96 9 12 C8.01 12 7.02 12 6 12 C6 10.02 6 8.04 6 6 C5.01 6 4.02 6 3 6 C3 7.98 3 9.96 3 12 C2.01 12 1.02 12 0 12 C0 11.01 0 10.02 0 9 C-0.99 9 -1.98 9 -3 9 C-3 7.02 -3 5.04 -3 3 C-2.01 3 -1.02 3 0 3 C0 2.01 0 1.02 0 0 Z " fill="#000000" transform="translate(66,42)"/>
<path d="M0 0 C0.99 0 1.98 0 3 0 C3 0.99 3 1.98 3 3 C3.99 3 4.98 3 6 3 C6 2.01 6 1.02 6 0 C6.99 0 7.98 0 9 0 C9 3.96 9 7.92 9 12 C8.01 12 7.02 12 6 12 C6 12.99 6 13.98 6 15 C3.03 15 0.06 15 -3 15 C-3 12.03 -3 9.06 -3 6 C-2.01 6 -1.02 6 0 6 C0 4.02 0 2.04 0 0 Z " fill="#1B4B1D" transform="translate(40,36)"/>
<path d="M0 0 C4.95 0.99 4.95 0.99 10 2 C10 2.66 10 3.32 10 4 C12.31 4 14.62 4 17 4 C17 4.66 17 5.32 17 6 C17.99 6 18.98 6 20 6 C20.99 7.485 20.99 7.485 22 9 C24.14653442 9.97249269 24.14653442 9.97249269 26.5625 10.625 C30.92255125 11.92255125 30.92255125 11.92255125 32 13 C32.04063832 14.66617115 32.042721 16.33388095 32 18 C29.03 17.01 26.06 16.02 23 15 C23 14.34 23 13.68 23 13 C20.03 12.505 20.03 12.505 17 12 C17 11.34 17 10.68 17 10 C16.278125 9.71125 15.55625 9.4225 14.8125 9.125 C12.20833333 8.08333333 9.60416667 7.04166667 7 6 C7 5.34 7 4.68 7 4 C4.69 3.34 2.38 2.68 0 2 C0 1.34 0 0.68 0 0 Z " fill="#3D4A0F" transform="translate(84,88)"/>
<path d="M0 0 C1.98 0 3.96 0 6 0 C6 0.99 6 1.98 6 3 C6.99 3 7.98 3 9 3 C9 4.98 9 6.96 9 9 C9.99 9 10.98 9 12 9 C12 9.99 12 10.98 12 12 C11.01 12 10.02 12 9 12 C9 12.99 9 13.98 9 15 C8.01 15 7.02 15 6 15 C6 14.01 6 13.02 6 12 C5.01 12 4.02 12 3 12 C3 12.99 3 13.98 3 15 C1.68 15 0.36 15 -1 15 C-0.67 10.05 -0.34 5.1 0 0 Z " fill="#143E19" transform="translate(1,84)"/>
<path d="M0 0 C0.99 0 1.98 0 3 0 C3 0.99 3 1.98 3 3 C3.99 3 4.98 3 6 3 C6 3.99 6 4.98 6 6 C10.95 6 15.9 6 21 6 C21 8.97 21 11.94 21 15 C20.01 15 19.02 15 18 15 C18 13.02 18 11.04 18 9 C17.01 9 16.02 9 15 9 C15 9.99 15 10.98 15 12 C14.01 12 13.02 12 12 12 C12 11.01 12 10.02 12 9 C11.01 9 10.02 9 9 9 C9 9.99 9 10.98 9 12 C7.02 12 5.04 12 3 12 C3 10.02 3 8.04 3 6 C2.01 6 1.02 6 0 6 C0 4.02 0 2.04 0 0 Z " fill="#0E2E15" transform="translate(13,36)"/>
<path d="M0 0 C2.97 0 5.94 0 9 0 C9 3.96 9 7.92 9 12 C6.03 12 3.06 12 0 12 C0 11.01 0 10.02 0 9 C-0.99 9 -1.98 9 -3 9 C-3 7.02 -3 5.04 -3 3 C-2.01 3 -1.02 3 0 3 C0 2.01 0 1.02 0 0 Z " fill="#F78454" transform="translate(69,21)"/>
<path d="M0 0 C3.3 0 6.6 0 10 0 C10 2.97 10 5.94 10 9 C9.01 9 8.02 9 7 9 C7 10.98 7 12.96 7 15 C6.01 15 5.02 15 4 15 C4 14.01 4 13.02 4 12 C3.01 12 2.02 12 1 12 C0.67 12.99 0.34 13.98 0 15 C0 10.05 0 5.1 0 0 Z " fill="#0E2012" transform="translate(0,0)"/>
<path d="M0 0 C0.99 0 1.98 0 3 0 C3 3.96 3 7.92 3 12 C2.01 12 1.02 12 0 12 C0.01160156 12.61488281 0.02320313 13.22976562 0.03515625 13.86328125 C0.04417969 14.67152344 0.05320312 15.47976562 0.0625 16.3125 C0.07410156 17.11300781 0.08570313 17.91351563 0.09765625 18.73828125 C0 21 0 21 -1 24 C-1.99 24 -2.98 24 -4 24 C-4 24.99 -4 25.98 -4 27 C-5.65 27 -7.3 27 -9 27 C-9 26.01 -9 25.02 -9 24 C-8.01 24 -7.02 24 -6 24 C-6 23.01 -6 22.02 -6 21 C-5.01 21 -4.02 21 -3 21 C-3 15.06 -3 9.12 -3 3 C-2.01 3 -1.02 3 0 3 C0 2.01 0 1.02 0 0 Z " fill="#381B0C" transform="translate(52,27)"/>
<path d="M0 0 C1.98 0 3.96 0 6 0 C6 0.99 6 1.98 6 3 C6.99 3 7.98 3 9 3 C9 2.01 9 1.02 9 0 C14.94 0 20.88 0 27 0 C27 0.99 27 1.98 27 3 C23.04 3 19.08 3 15 3 C15 3.66 15 4.32 15 5 C9.06 5 3.12 5 -3 5 C-3 4.34 -3 3.68 -3 3 C-2.01 3 -1.02 3 0 3 C0 2.01 0 1.02 0 0 Z " fill="#1B2A13" transform="translate(4,111)"/>
<path d="M0 0 C1.98 0 3.96 0 6 0 C6 0.99 6 1.98 6 3 C7.98 3 9.96 3 12 3 C12 2.01 12 1.02 12 0 C13.98 0 15.96 0 18 0 C18 0.99 18 1.98 18 3 C18.99 3 19.98 3 21 3 C21 3.99 21 4.98 21 6 C13.08 6 5.16 6 -3 6 C-3 5.01 -3 4.02 -3 3 C-2.01 3 -1.02 3 0 3 C0 2.01 0 1.02 0 0 Z " fill="#FF4A33" transform="translate(48,84)"/>
<path d="M0 0 C0.99 0 1.98 0 3 0 C3 1.98 3 3.96 3 6 C4.98 6 6.96 6 9 6 C9 8.97 9 11.94 9 15 C10.98 15 12.96 15 15 15 C15 15.99 15 16.98 15 18 C14.01 18 13.02 18 12 18 C12 18.99 12 19.98 12 21 C11.01 21 10.02 21 9 21 C9 20.01 9 19.02 9 18 C8.01 18 7.02 18 6 18 C6 15.03 6 12.06 6 9 C5.01 9 4.02 9 3 9 C3 9.99 3 10.98 3 12 C2.01 12 1.02 12 0 12 C0 8.04 0 4.08 0 0 Z " fill="#32180B" transform="translate(40,0)"/>
<path d="M0 0 C0.99 0 1.98 0 3 0 C3 4.95 3 9.9 3 15 C3.99 15 4.98 15 6 15 C6 15.99 6 16.98 6 18 C5.195625 18.2475 4.39125 18.495 3.5625 18.75 C0.828919 19.72238859 0.828919 19.72238859 0.1875 22.125 C0.125625 22.74375 0.06375 23.3625 0 24 C-1.98 24 -3.96 24 -6 24 C-6 23.01 -6 22.02 -6 21 C-5.01 21 -4.02 21 -3 21 C-3 19.02 -3 17.04 -3 15 C-2.01 15 -1.02 15 0 15 C0 10.05 0 5.1 0 0 Z " fill="#000000" transform="translate(84,39)"/>
<path d="M0 0 C5.94 0 11.88 0 18 0 C18 0.99 18 1.98 18 3 C17.01 3 16.02 3 15 3 C15 3.99 15 4.98 15 6 C11.04 6 7.08 6 3 6 C3 5.01 3 4.02 3 3 C2.01 3 1.02 3 0 3 C0 2.01 0 1.02 0 0 Z " fill="#854229" transform="translate(61,0)"/>
<path d="M0 0 C1.43791516 0.14168137 2.8753237 0.28851043 4.3125 0.4375 C5.11300781 0.51871094 5.91351563 0.59992188 6.73828125 0.68359375 C9 1 9 1 12 2 C12 2.66 12 3.32 12 4 C12.99 3.938125 13.98 3.87625 15 3.8125 C19.46888211 3.78508355 22.91304608 5.2791773 27 7 C27 7.66 27 8.32 27 9 C27.99 8.67 28.98 8.34 30 8 C30.66 8.66 31.32 9.32 32 10 C31.625 12.125 31.625 12.125 31 14 C29.34912153 13.40975852 27.70437593 12.80233994 26.0625 12.1875 C25.14597656 11.85105469 24.22945312 11.51460937 23.28515625 11.16796875 C21 10 21 10 20 7 C19.01 7 18.02 7 17 7 C17 6.34 17 5.68 17 5 C14.69 5 12.38 5 10 5 C10 4.34 10 3.68 10 3 C8.081875 2.814375 8.081875 2.814375 6.125 2.625 C2.25 2.25 2.25 2.25 0 0 Z " fill="#90B525" transform="translate(84,87)"/>
<path d="M0 0 C0.99 0 1.98 0 3 0 C3 4.95 3 9.9 3 15 C2.01 15 1.02 15 0 15 C0 12.03 0 9.06 0 6 C-0.99 6 -1.98 6 -3 6 C-3 6.99 -3 7.98 -3 9 C-3.99 9 -4.98 9 -6 9 C-6 8.01 -6 7.02 -6 6 C-6.99 6 -7.98 6 -9 6 C-9 5.01 -9 4.02 -9 3 C-6.03 3 -3.06 3 0 3 C0 2.01 0 1.02 0 0 Z " fill="#3E1E0E" transform="translate(37,57)"/>
<path d="M0 0 C2.97 0 5.94 0 9 0 C9 1.98 9 3.96 9 6 C8.01 6 7.02 6 6 6 C6 6.99 6 7.98 6 9 C3.03 9 0.06 9 -3 9 C-3 8.01 -3 7.02 -3 6 C-2.01 6 -1.02 6 0 6 C0 4.02 0 2.04 0 0 Z " fill="#D1814B" transform="translate(72,54)"/>
<path d="M0 0 C5.94 0 11.88 0 18 0 C18 0.99 18 1.98 18 3 C14.04 3 10.08 3 6 3 C6 3.99 6 4.98 6 6 C3.03 6 0.06 6 -3 6 C-3 5.01 -3 4.02 -3 3 C-2.01 3 -1.02 3 0 3 C0 2.01 0 1.02 0 0 Z " fill="#3E2215" transform="translate(79,0)"/>
<path d="M0 0 C4.95 0 9.9 0 15 0 C15 0.99 15 1.98 15 3 C15.99 3 16.98 3 18 3 C18 3.99 18 4.98 18 6 C15.03 6 12.06 6 9 6 C9 5.01 9 4.02 9 3 C6.03 3 3.06 3 0 3 C0 2.01 0 1.02 0 0 Z " fill="#30170B" transform="translate(46,0)"/>
<path d="M0 0 C0 0.66 0 1.32 0 2 C-1.65 2.33 -3.3 2.66 -5 3 C-5 3.66 -5 4.32 -5 5 C-5.66 5 -6.32 5 -7 5 C-7 5.66 -7 6.32 -7 7 C-7.99 7 -8.98 7 -10 7 C-10 8.32 -10 9.64 -10 11 C-12.97 11 -15.94 11 -19 11 C-19 10.01 -19 9.02 -19 8 C-17.02 8 -15.04 8 -13 8 C-12.67 6.35 -12.34 4.7 -12 3 C-10.56445975 2.49440092 -9.1264798 1.9957251 -7.6875 1.5 C-6.88699219 1.2215625 -6.08648437 0.943125 -5.26171875 0.65625 C-3 0 -3 0 0 0 Z " fill="#69821B" transform="translate(97,55)"/>
<path d="M0 0 C0 0.99 0 1.98 0 3 C-1.98 3.33 -3.96 3.66 -6 4 C-6 4.66 -6 5.32 -6 6 C-8.46201703 7.23100852 -10.92443757 8.46094998 -13.390625 9.68359375 C-15.40903826 10.70186511 -17.3987725 11.77709584 -19.375 12.875 C-22 14 -22 14 -24.375 13.6875 C-24.91125 13.460625 -25.4475 13.23375 -26 13 C-25.34 13 -24.68 13 -24 13 C-24 12.34 -24 11.68 -24 11 C-22.35 10.67 -20.7 10.34 -19 10 C-19 9.34 -19 8.68 -19 8 C-18.36191406 7.89042969 -17.72382812 7.78085937 -17.06640625 7.66796875 C-16.24011719 7.50941406 -15.41382812 7.35085937 -14.5625 7.1875 C-13.32693359 6.96126953 -13.32693359 6.96126953 -12.06640625 6.73046875 C-11.04353516 6.36888672 -11.04353516 6.36888672 -10 6 C-9.67 5.01 -9.34 4.02 -9 3 C-2.88888889 0 -2.88888889 0 0 0 Z " fill="#90B624" transform="translate(116,47)"/>
<path d="M0 0 C2.97 0 5.94 0 9 0 C9 0.99 9 1.98 9 3 C7.02 3 5.04 3 3 3 C3 3.99 3 4.98 3 6 C2.01 6 1.02 6 0 6 C0 6.99 0 7.98 0 9 C-2.64 9 -5.28 9 -8 9 C-8 8.01 -8 7.02 -8 6 C-6.35 6 -4.7 6 -3 6 C-3 5.01 -3 4.02 -3 3 C-2.01 3 -1.02 3 0 3 C0 2.01 0 1.02 0 0 Z " fill="#B97346" transform="translate(66,18)"/>
<path d="M0 0 C0.99 0 1.98 0 3 0 C3 0.99 3 1.98 3 3 C3.99 3 4.98 3 6 3 C6 5.97 6 8.94 6 12 C4.02 12 2.04 12 0 12 C0 8.04 0 4.08 0 0 Z " fill="#FFFF90" transform="translate(75,72)"/>
<path d="M0 0 C0.99 0 1.98 0 3 0 C3 0.99 3 1.98 3 3 C3.99 3 4.98 3 6 3 C6 3.99 6 4.98 6 6 C6.99 6 7.98 6 9 6 C9 7.98 9 9.96 9 12 C7.02 12 5.04 12 3 12 C3 10.02 3 8.04 3 6 C2.01 6 1.02 6 0 6 C0 4.02 0 2.04 0 0 Z " fill="#381C0D" transform="translate(13,36)"/>
<path d="M0 0 C2.31 0 4.62 0 7 0 C7 0.99 7 1.98 7 3 C6.01 3 5.02 3 4 3 C4 5.97 4 8.94 4 12 C3.01 12 2.02 12 1 12 C0.67 12.99 0.34 13.98 0 15 C0 10.05 0 5.1 0 0 Z " fill="#0D2A15" transform="translate(0,27)"/>
<path d="M0 0 C4.95 0 9.9 0 15 0 C15 0.99 15 1.98 15 3 C11.04 3 7.08 3 3 3 C3 3.66 3 4.32 3 5 C2.01 5 1.02 5 0 5 C0 3.35 0 1.7 0 0 Z " fill="#3E1E0E" transform="translate(16,111)"/>
<path d="M0 0 C0 0.66 0 1.32 0 2 C-0.61488281 2.25394531 -1.22976562 2.50789063 -1.86328125 2.76953125 C-2.67152344 3.11371094 -3.47976562 3.45789062 -4.3125 3.8125 C-5.11300781 4.14894531 -5.91351563 4.48539063 -6.73828125 4.83203125 C-9.03351258 5.86773709 -9.03351258 5.86773709 -10.5625 7.59375 C-12.93497369 9.91464818 -15.8141856 9.69945147 -19 10 C-19 9.34 -19 8.68 -19 8 C-18.34 8 -17.68 8 -17 8 C-17 7.34 -17 6.68 -17 6 C-12.05 4.515 -12.05 4.515 -7 3 C-7 2.34 -7 1.68 -7 1 C-2.25 0 -2.25 0 0 0 Z " fill="#637B19" transform="translate(116,45)"/>
<path d="M0 0 C4.95 0.99 4.95 0.99 10 2 C10 2.66 10 3.32 10 4 C12.31 4 14.62 4 17 4 C17 4.66 17 5.32 17 6 C17.99 6 18.98 6 20 6 C20.66 7.32 21.32 8.64 22 10 C16.12192377 8.46658881 10.61255874 6.30999202 5 4 C3.3339742 3.33173339 1.66748391 2.66461992 0 2 C0 1.34 0 0.68 0 0 Z " fill="#627A19" transform="translate(84,88)"/>
<path d="M0 0 C1.32 0 2.64 0 4 0 C4 2.97 4 5.94 4 9 C3.01 9 2.02 9 1 9 C1 12.96 1 16.92 1 21 C0.67 21 0.34 21 0 21 C0 14.07 0 7.14 0 0 Z " fill="#194A1C" transform="translate(0,75)"/>
<path d="M0 0 C0.99 0 1.98 0 3 0 C3 0.99 3 1.98 3 3 C4.98 3 6.96 3 9 3 C9 3.99 9 4.98 9 6 C7.02 6 5.04 6 3 6 C3 6.99 3 7.98 3 9 C2.01 9 1.02 9 0 9 C0 6.03 0 3.06 0 0 Z " fill="#143E19" transform="translate(13,96)"/>
<path d="M0 0 C2.97 0 5.94 0 9 0 C9 0.99 9 1.98 9 3 C8.01 3 7.02 3 6 3 C6 3.99 6 4.98 6 6 C4.02 6 2.04 6 0 6 C0 4.02 0 2.04 0 0 Z " fill="#D3844C" transform="translate(72,87)"/>
<path d="M0 0 C1.98 0 3.96 0 6 0 C6.96070434 2.88211302 7.10581883 4.69850044 7.0625 7.6875 C7.05347656 8.49574219 7.04445313 9.30398437 7.03515625 10.13671875 C7.02355469 10.75160156 7.01195312 11.36648437 7 12 C6.01 12 5.02 12 4 12 C4 9.03 4 6.06 4 3 C2.68 3 1.36 3 0 3 C0 2.01 0 1.02 0 0 Z " fill="#3E1E0E" transform="translate(42,69)"/>
<path d="M0 0 C2.97 0 5.94 0 9 0 C9 1.98 9 3.96 9 6 C7.02 6 5.04 6 3 6 C3 5.01 3 4.02 3 3 C2.01 3 1.02 3 0 3 C0 2.01 0 1.02 0 0 Z " fill="#3E1E0E" transform="translate(19,63)"/>
<path d="M0 0 C0.99 0 1.98 0 3 0 C3 1.98 3 3.96 3 6 C2.01 6 1.02 6 0 6 C0 6.99 0 7.98 0 9 C-0.99 9 -1.98 9 -3 9 C-3 7.02 -3 5.04 -3 3 C-2.01 3 -1.02 3 0 3 C0 2.01 0 1.02 0 0 Z " fill="#3E1E0E" transform="translate(34,90)"/>
<path d="M0 0 C0.99 0 1.98 0 3 0 C3 2.97 3 5.94 3 9 C2.01 9 1.02 9 0 9 C0 8.01 0 7.02 0 6 C-0.99 6 -1.98 6 -3 6 C-3 5.01 -3 4.02 -3 3 C-2.01 3 -1.02 3 0 3 C0 2.01 0 1.02 0 0 Z " fill="#19471D" transform="translate(13,42)"/>
<path d="M0 0 C2.97 0 5.94 0 9 0 C9 0.99 9 1.98 9 3 C8.01 3 7.02 3 6 3 C6 3.99 6 4.98 6 6 C5.01 6 4.02 6 3 6 C3 5.01 3 4.02 3 3 C2.01 3 1.02 3 0 3 C0 2.01 0 1.02 0 0 Z " fill="#0E2E15" transform="translate(40,33)"/>
<path d="M0 0 C0.99 0 1.98 0 3 0 C3 3.96 3 7.92 3 12 C2.01 12 1.02 12 0 12 C0 8.04 0 4.08 0 0 Z " fill="#000000" transform="translate(81,27)"/>
<path d="M0 0 C3.96 0 7.92 0 12 0 C12 0.99 12 1.98 12 3 C8.04 3 4.08 3 0 3 C0 2.01 0 1.02 0 0 Z " fill="#763D25" transform="translate(64,3)"/>
<path d="M0 0 C0 1.65 0 3.3 0 5 C-2.31 5.33 -4.62 5.66 -7 6 C-7 6.66 -7 7.32 -7 8 C-8.65 8.33 -10.3 8.66 -12 9 C-3.5 0 -3.5 0 0 0 Z " fill="#3F4C11" transform="translate(116,40)"/>
<path d="M0 0 C0.99 0 1.98 0 3 0 C3 2.97 3 5.94 3 9 C2.01 9 1.02 9 0 9 C0 6.03 0 3.06 0 0 Z " fill="#3E1E0E" transform="translate(37,96)"/>
<path d="M0 0 C1.98 0 3.96 0 6 0 C6 0.99 6 1.98 6 3 C5.01 3 4.02 3 3 3 C3 3.99 3 4.98 3 6 C2.01 6 1.02 6 0 6 C0 4.02 0 2.04 0 0 Z " fill="#1C4C1D" transform="translate(16,75)"/>
<path d="M0 0 C0.99 0 1.98 0 3 0 C3 0.99 3 1.98 3 3 C3.99 3 4.98 3 6 3 C6 3.99 6 4.98 6 6 C4.02 6 2.04 6 0 6 C0 4.02 0 2.04 0 0 Z " fill="#F7B76D" transform="translate(75,72)"/>
<path d="M0 0 C0.99 0 1.98 0 3 0 C3 0.99 3 1.98 3 3 C3.99 3 4.98 3 6 3 C6 3.99 6 4.98 6 6 C4.02 6 2.04 6 0 6 C0 4.02 0 2.04 0 0 Z " fill="#FCD27B" transform="translate(75,48)"/>
<path d="M0 0 C2.97 0 5.94 0 9 0 C9 0.99 9 1.98 9 3 C6.03 3 3.06 3 0 3 C0 2.01 0 1.02 0 0 Z " fill="#FF7A4D" transform="translate(69,30)"/>
<path d="M0 0 C0.99 0 1.98 0 3 0 C3 2.97 3 5.94 3 9 C2.01 9 1.02 9 0 9 C0 6.03 0 3.06 0 0 Z " fill="#351A0C" transform="translate(55,18)"/>
<path d="M0 0 C2.97 0 5.94 0 9 0 C9 0.99 9 1.98 9 3 C6.03 3 3.06 3 0 3 C0 2.01 0 1.02 0 0 Z " fill="#000000" transform="translate(66,15)"/>
<path d="M0 0 C0.99 0 1.98 0 3 0 C3 1.98 3 3.96 3 6 C1.02 6 -0.96 6 -3 6 C-3 5.01 -3 4.02 -3 3 C-2.01 3 -1.02 3 0 3 C0 2.01 0 1.02 0 0 Z " fill="#4F2C1C" transform="translate(79,0)"/>
<path d="M0 0 C0.99 0 1.98 0 3 0 C3 0.99 3 1.98 3 3 C3.99 3 4.98 3 6 3 C6 3.99 6 4.98 6 6 C4.02 6 2.04 6 0 6 C0 4.02 0 2.04 0 0 Z " fill="#512C1C" transform="translate(58,0)"/>
<path d="M0 0 C1.98 0 3.96 0 6 0 C6 0.99 6 1.98 6 3 C5.01 3 4.02 3 3 3 C3 3.99 3 4.98 3 6 C2.01 6 1.02 6 0 6 C0 4.02 0 2.04 0 0 Z " fill="#2F170B" transform="translate(82,0)"/>
<path d="M0 0 C1.98 0 3.96 0 6 0 C6 1.98 6 3.96 6 6 C5.01 6 4.02 6 3 6 C3 5.01 3 4.02 3 3 C2.01 3 1.02 3 0 3 C0 2.01 0 1.02 0 0 Z " fill="#2F170B" transform="translate(25,0)"/>
<path d="M0 0 C7.75 0.75 7.75 0.75 10 3 C10 3.99 10 4.98 10 6 C6.00499382 4.6302836 3.19990508 2.74277578 0 0 Z " fill="#627A18" transform="translate(106,98)"/>
<path d="M0 0 C5.94 0.99 5.94 0.99 12 2 C11.67 3.32 11.34 4.64 11 6 C9.3509698 5.38348417 7.70584159 4.75652258 6.0625 4.125 C5.14597656 3.77695313 4.22945313 3.42890625 3.28515625 3.0703125 C1 2 1 2 0 0 Z " fill="#81A121" transform="translate(104,95)"/>
<path d="M0 0 C2.97 0 5.94 0 9 0 C9 0.99 9 1.98 9 3 C6.03 3 3.06 3 0 3 C0 2.01 0 1.02 0 0 Z " fill="#556B16" transform="translate(78,63)"/>
<path d="M0 0 C0 0.99 0 1.98 0 3 C-3.83887763 4.48320272 -6.06204091 5.22419163 -10 4 C-8.71086513 3.32845067 -7.41859796 2.66291141 -6.125 2 C-5.40570313 1.62875 -4.68640625 1.2575 -3.9453125 0.875 C-2 0 -2 0 0 0 Z " fill="#82A322" transform="translate(116,47)"/>
<path d="M0 0 C0.99 0 1.98 0 3 0 C2.67 1.98 2.34 3.96 2 6 C0.35 6 -1.3 6 -3 6 C-3 5.01 -3 4.02 -3 3 C-2.01 3 -1.02 3 0 3 C0 2.01 0 1.02 0 0 Z " fill="#2E160A" transform="translate(46,48)"/>
<path d="M0 0 C0.99 0 1.98 0 3 0 C3 1.98 3 3.96 3 6 C2.01 6 1.02 6 0 6 C-0.33 6.99 -0.66 7.98 -1 9 C-0.67 6.03 -0.34 3.06 0 0 Z " fill="#34190C" transform="translate(1,33)"/>
<path d="M0 0 C0.66 0 1.32 0 2 0 C2 1.98 2 3.96 2 6 C0.35 6 -1.3 6 -3 6 C-3 5.01 -3 4.02 -3 3 C-2.01 3 -1.02 3 0 3 C0 2.01 0 1.02 0 0 Z " fill="#D3844C" transform="translate(40,87)"/>
<path d="M0 0 C0.66 0 1.32 0 2 0 C2 0.99 2 1.98 2 3 C2.99 3 3.98 3 5 3 C5 3.99 5 4.98 5 6 C3.35 6 1.7 6 0 6 C0 4.02 0 2.04 0 0 Z " fill="#D3844C" transform="translate(40,57)"/>
<path d="M0 0 C-1.24176695 0.70226141 -2.49385599 1.38629109 -3.75 2.0625 C-4.79414062 2.63677734 -4.79414062 2.63677734 -5.859375 3.22265625 C-8.36140628 4.1312406 -9.5332355 3.88336837 -12 3 C-11.34 3 -10.68 3 -10 3 C-10 2.34 -10 1.68 -10 1 C-3.375 -1.125 -3.375 -1.125 0 0 Z " fill="#99C027" transform="translate(102,57)"/>
<path d="M0 0 C3.34373475 0.55728913 6.03312999 1.35173889 9 3 C8.67 3.99 8.34 4.98 8 6 C6.66402348 5.19185349 5.331275 4.37836819 4 3.5625 C3.2575 3.11003906 2.515 2.65757813 1.75 2.19140625 C1.1725 1.79824219 0.595 1.40507813 0 1 C0 0.67 0 0.34 0 0 Z " fill="#252B08" transform="translate(107,103)"/>
<path d="M0 0 C1.98 0 3.96 0 6 0 C6 0.99 6 1.98 6 3 C4.02 3 2.04 3 0 3 C0 2.01 0 1.02 0 0 Z " fill="#372218" transform="translate(60,105)"/>
<path d="M0 0 C1.98 0 3.96 0 6 0 C6 0.99 6 1.98 6 3 C4.02 3 2.04 3 0 3 C0 2.01 0 1.02 0 0 Z " fill="#372218" transform="translate(48,105)"/>
<path d="M0 0 C0.99 0 1.98 0 3 0 C3 1.98 3 3.96 3 6 C2.01 6 1.02 6 0 6 C0 4.02 0 2.04 0 0 Z " fill="#0F2F15" transform="translate(1,84)"/>
<path d="M0 0 C1.98 0 3.96 0 6 0 C6 0.99 6 1.98 6 3 C4.02 3 2.04 3 0 3 C0 2.01 0 1.02 0 0 Z " fill="#E13329" transform="translate(54,72)"/>
<path d="M0 0 C0.99 0 1.98 0 3 0 C3 1.98 3 3.96 3 6 C2.01 6 1.02 6 0 6 C0 4.02 0 2.04 0 0 Z " fill="#3E1E0E" transform="translate(13,72)"/>
<path d="M0 0 C1.98 0 3.96 0 6 0 C6 0.99 6 1.98 6 3 C4.02 3 2.04 3 0 3 C0 2.01 0 1.02 0 0 Z " fill="#9E3420" transform="translate(42,69)"/>
<path d="M0 0 C1.98 0 3.96 0 6 0 C6 0.99 6 1.98 6 3 C4.02 3 2.04 3 0 3 C0 2.01 0 1.02 0 0 Z " fill="#FF4A33" transform="translate(54,66)"/>
<path d="M0 0 C0.99 0 1.98 0 3 0 C3 1.98 3 3.96 3 6 C2.01 6 1.02 6 0 6 C0 4.02 0 2.04 0 0 Z " fill="#3E1E0E" transform="translate(16,66)"/>
<path d="M0 0 C1.98 0 3.96 0 6 0 C6 0.99 6 1.98 6 3 C4.02 3 2.04 3 0 3 C0 2.01 0 1.02 0 0 Z " fill="#FFF086" transform="translate(54,60)"/>
<path d="M0 0 C1.98 0 3.96 0 6 0 C6 0.99 6 1.98 6 3 C4.02 3 2.04 3 0 3 C0 2.01 0 1.02 0 0 Z " fill="#FF975C" transform="translate(54,57)"/>
<path d="M0 0 C0.99 0 1.98 0 3 0 C3 1.98 3 3.96 3 6 C2.01 6 1.02 6 0 6 C0 4.02 0 2.04 0 0 Z " fill="#D8B66D" transform="translate(69,48)"/>
<path d="M0 0 C1.98 0 3.96 0 6 0 C6 0.99 6 1.98 6 3 C4.02 3 2.04 3 0 3 C0 2.01 0 1.02 0 0 Z " fill="#000000" transform="translate(66,36)"/>
<path d="M0 0 C0.99 0 1.98 0 3 0 C3 1.98 3 3.96 3 6 C2.01 6 1.02 6 0 6 C0 4.02 0 2.04 0 0 Z " fill="#0E2D15" transform="translate(37,36)"/>
<path d="M0 0 C0.99 0 1.98 0 3 0 C3 1.98 3 3.96 3 6 C2.01 6 1.02 6 0 6 C0 4.02 0 2.04 0 0 Z " fill="#FF7B4E" transform="translate(66,24)"/>
<path d="M0 0 C0.99 0 1.98 0 3 0 C3 1.98 3 3.96 3 6 C2.01 6 1.02 6 0 6 C0 4.02 0 2.04 0 0 Z " fill="#000000" transform="translate(78,21)"/>
<path d="M0 0 C1.98 0 3.96 0 6 0 C6 0.99 6 1.98 6 3 C4.02 3 2.04 3 0 3 C0 2.01 0 1.02 0 0 Z " fill="#58311F" transform="translate(46,0)"/>
<path d="M0 0 C1.98 0 3.96 0 6 0 C5.67 0.99 5.34 1.98 5 3 C3.35 3 1.7 3 0 3 C0 2.01 0 1.02 0 0 Z " fill="#89AE22" transform="translate(72,66)"/>
</svg>
